<svg width="808" height="551" viewBox="0 0 808 551" fill="none" xmlns="http://www.w3.org/2000/svg">
<g clip-path="url(#clip0_106_3890)">
<path d="M306.222 86.6614C305.665 87.4346 304.896 87.9984 304.023 88.2722C303.151 88.5461 302.221 88.5158 301.365 88.1859C301.105 88.103 300.85 88.0027 300.601 87.8857C300.882 84.6518 300.743 81.3916 300.188 78.1991C299.969 80.9432 299.346 83.6323 298.342 86.165C297.523 85.2805 296.852 84.2497 296.36 83.1185C295.443 80.7777 294.836 78.3101 294.555 75.7877C293.199 67.1938 291.861 58.2532 294.074 49.8547C297.315 37.586 307.536 28.7661 311.805 16.8626L313.908 14.8293C317.509 21.4316 317.668 29.6357 316.2 37.1223C314.741 44.6237 311.799 51.664 309.473 58.8981C307.148 66.1322 305.405 73.827 306.484 81.3967C306.732 83.179 307.111 85.138 306.222 86.6614Z" fill="#2F2E41"/>
<path d="M259.479 190.473L245.773 257.983L305.64 278.981L296.837 190.473H259.479Z" fill="#FFB6B6"/>
<path d="M681.94 548.75H709.069V414.813C709.033 380.247 696.266 347.108 673.57 322.666C650.873 298.225 620.101 284.476 588.003 284.437H335.877C303.779 284.476 273.007 298.225 250.31 322.666C227.614 347.108 214.847 380.247 214.811 414.813V548.75H241.939V457.248C241.976 422.361 254.861 388.914 277.769 364.245C300.676 339.576 331.735 325.699 364.131 325.66H559.748C592.145 325.699 623.204 339.576 646.111 364.245C669.019 388.914 681.904 422.361 681.94 457.248V548.75Z" fill="#E6E6E6"/>
<path d="M352.279 478.681L323.366 469.254C321.486 460.934 320.538 452.401 320.542 443.838C320.555 441.903 321.08 440.014 322.055 438.389C323.03 436.764 324.414 435.472 326.046 434.664C327.677 433.856 329.489 433.565 331.269 433.825C333.049 434.085 334.723 434.885 336.096 436.132C351.603 450.456 374.317 458.099 388.976 474.422C395.042 481.282 399.598 489.524 402.305 498.537C405.011 507.551 405.8 517.105 404.612 526.491L410.94 548.535C396.776 547.434 383.002 543.039 370.567 535.654C358.132 528.268 347.332 518.067 338.911 505.754C334.25 498.796 330.421 491.233 327.515 483.245C339.777 481.747 352.279 478.681 352.279 478.681Z" fill="#F2F2F2"/>
<path d="M427.633 514.779L442.379 509.971C442.398 509.887 442.417 509.802 442.436 509.718C442.844 507.776 442.715 505.747 442.065 503.883C441.414 502.018 440.271 500.4 438.777 499.227C437.282 498.055 435.501 497.379 433.654 497.284C431.806 497.189 429.974 497.679 428.382 498.693C421.688 502.975 414.255 506.662 408.916 512.607C405.822 516.106 403.499 520.309 402.118 524.907C400.738 529.504 400.335 534.377 400.941 539.164L397.714 550.407C404.938 549.845 411.963 547.604 418.305 543.837C424.648 540.07 430.156 534.868 434.451 528.587C436.829 525.039 438.781 521.181 440.264 517.107C434.009 516.343 427.633 514.779 427.633 514.779Z" fill="#F2F2F2"/>
<path d="M547.004 185.662H489.578C488.766 185.663 487.987 186.012 487.413 186.631C486.84 187.25 486.518 188.09 486.519 188.965V286.656H550.071V188.965C550.071 188.531 549.992 188.101 549.838 187.7C549.684 187.3 549.458 186.935 549.173 186.629C548.888 186.322 548.55 186.079 548.178 185.913C547.806 185.747 547.407 185.661 547.004 185.662ZM518.484 241.169C516.688 241.16 514.968 240.387 513.699 239.02C512.429 237.652 511.712 235.8 511.703 233.866V222.598C511.705 220.663 512.421 218.808 513.692 217.441C514.964 216.073 516.687 215.305 518.484 215.305C520.281 215.305 522.005 216.073 523.276 217.441C524.547 218.808 525.263 220.663 525.265 222.598V233.866C525.257 235.8 524.54 237.652 523.27 239.02C522 240.387 520.28 241.16 518.484 241.169Z" fill="#3F3D56"/>
<path d="M642.096 33.2034H396.623C394.514 33.207 392.492 34.1108 391.001 35.7168C389.51 37.3227 388.67 39.4998 388.667 41.771V220.154C388.669 222.426 389.508 224.604 390.999 226.21C392.491 227.816 394.513 228.72 396.623 228.722H642.096C644.205 228.72 646.228 227.816 647.719 226.21C649.211 224.604 650.05 222.426 650.052 220.154V41.771C650.048 39.4998 649.209 37.3227 647.718 35.7168C646.227 34.1108 644.205 33.207 642.096 33.2034Z" fill="#3F3D56"/>
<path d="M640.047 39.3916H398.674C397.545 39.3942 396.462 39.8791 395.665 40.7399C394.867 41.6007 394.419 42.7671 394.419 43.9831V217.945C394.421 219.16 394.87 220.324 395.667 221.183C396.465 222.041 397.546 222.525 398.674 222.527H640.047C641.175 222.525 642.256 222.041 643.053 221.183C643.851 220.324 644.3 219.16 644.302 217.945V43.9831C644.302 42.767 643.854 41.6007 643.056 40.7399C642.258 39.8791 641.176 39.3942 640.047 39.3916Z" fill="white"/>
<path d="M486.322 283.531V292.957C486.323 293.445 486.503 293.913 486.824 294.258C487.145 294.604 487.579 294.798 488.033 294.799H548.557C549.01 294.797 549.444 294.602 549.765 294.257C550.085 293.912 550.266 293.444 550.268 292.957V283.531H486.322Z" fill="#3F3D56"/>
<path d="M593.032 298.079H449.428C449.035 298.079 448.646 297.984 448.292 297.802C447.937 297.62 447.624 297.355 447.376 297.026C447.129 296.698 446.952 296.314 446.86 295.902C446.768 295.491 446.762 295.062 446.843 294.648L449.071 283.251C449.198 282.614 449.523 282.042 449.993 281.631C450.464 281.22 451.05 280.995 451.656 280.993H590.804C591.409 280.995 591.996 281.22 592.466 281.631C592.936 282.042 593.262 282.614 593.388 283.251L595.617 294.648C595.698 295.062 595.692 295.491 595.599 295.902C595.507 296.314 595.331 296.698 595.083 297.026C594.835 297.355 594.523 297.62 594.168 297.802C593.813 297.984 593.425 298.079 593.032 298.079Z" fill="#3F3D56"/>
<path d="M456.549 283.045H453.225C452.921 283.045 452.675 283.31 452.675 283.637V285.311C452.675 285.638 452.921 285.903 453.225 285.903H456.549C456.852 285.903 457.098 285.638 457.098 285.311V283.637C457.098 283.31 456.852 283.045 456.549 283.045Z" fill="#E6E6E6"/>
<path d="M465.394 283.045H462.071C461.767 283.045 461.521 283.31 461.521 283.637V285.311C461.521 285.638 461.767 285.903 462.071 285.903H465.394C465.698 285.903 465.944 285.638 465.944 285.311V283.637C465.944 283.31 465.698 283.045 465.394 283.045Z" fill="#E6E6E6"/>
<path d="M474.24 283.045H470.916C470.613 283.045 470.367 283.31 470.367 283.637V285.311C470.367 285.638 470.613 285.903 470.916 285.903H474.24C474.544 285.903 474.79 285.638 474.79 285.311V283.637C474.79 283.31 474.544 283.045 474.24 283.045Z" fill="#E6E6E6"/>
<path d="M483.086 283.045H479.762C479.459 283.045 479.212 283.31 479.212 283.637V285.311C479.212 285.638 479.459 285.903 479.762 285.903H483.086C483.389 285.903 483.635 285.638 483.635 285.311V283.637C483.635 283.31 483.389 283.045 483.086 283.045Z" fill="#E6E6E6"/>
<path d="M491.931 283.045H488.608C488.304 283.045 488.058 283.31 488.058 283.637V285.311C488.058 285.638 488.304 285.903 488.608 285.903H491.931C492.235 285.903 492.481 285.638 492.481 285.311V283.637C492.481 283.31 492.235 283.045 491.931 283.045Z" fill="#E6E6E6"/>
<path d="M500.777 283.045H497.454C497.15 283.045 496.904 283.31 496.904 283.637V285.311C496.904 285.638 497.15 285.903 497.454 285.903H500.777C501.081 285.903 501.327 285.638 501.327 285.311V283.637C501.327 283.31 501.081 283.045 500.777 283.045Z" fill="#E6E6E6"/>
<path d="M509.623 283.045H506.299C505.996 283.045 505.75 283.31 505.75 283.637V285.311C505.75 285.638 505.996 285.903 506.299 285.903H509.623C509.926 285.903 510.172 285.638 510.172 285.311V283.637C510.172 283.31 509.926 283.045 509.623 283.045Z" fill="#E6E6E6"/>
<path d="M518.469 283.045H515.145C514.841 283.045 514.595 283.31 514.595 283.637V285.311C514.595 285.638 514.841 285.903 515.145 285.903H518.469C518.772 285.903 519.018 285.638 519.018 285.311V283.637C519.018 283.31 518.772 283.045 518.469 283.045Z" fill="#E6E6E6"/>
<path d="M527.314 283.045H523.991C523.687 283.045 523.441 283.31 523.441 283.637V285.311C523.441 285.638 523.687 285.903 523.991 285.903H527.314C527.618 285.903 527.864 285.638 527.864 285.311V283.637C527.864 283.31 527.618 283.045 527.314 283.045Z" fill="#E6E6E6"/>
<path d="M536.16 283.045H532.836C532.533 283.045 532.287 283.31 532.287 283.637V285.311C532.287 285.638 532.533 285.903 532.836 285.903H536.16C536.464 285.903 536.71 285.638 536.71 285.311V283.637C536.71 283.31 536.464 283.045 536.16 283.045Z" fill="#E6E6E6"/>
<path d="M545.006 283.045H541.682C541.379 283.045 541.133 283.31 541.133 283.637V285.311C541.133 285.638 541.379 285.903 541.682 285.903H545.006C545.309 285.903 545.555 285.638 545.555 285.311V283.637C545.555 283.31 545.309 283.045 545.006 283.045Z" fill="#E6E6E6"/>
<path d="M553.851 283.045H550.528C550.224 283.045 549.978 283.31 549.978 283.637V285.311C549.978 285.638 550.224 285.903 550.528 285.903H553.851C554.155 285.903 554.401 285.638 554.401 285.311V283.637C554.401 283.31 554.155 283.045 553.851 283.045Z" fill="#E6E6E6"/>
<path d="M562.697 283.045H559.374C559.07 283.045 558.824 283.31 558.824 283.637V285.311C558.824 285.638 559.07 285.903 559.374 285.903H562.697C563.001 285.903 563.247 285.638 563.247 285.311V283.637C563.247 283.31 563.001 283.045 562.697 283.045Z" fill="#E6E6E6"/>
<path d="M571.543 283.045H568.219C567.916 283.045 567.67 283.31 567.67 283.637V285.311C567.67 285.638 567.916 285.903 568.219 285.903H571.543C571.846 285.903 572.093 285.638 572.093 285.311V283.637C572.093 283.31 571.846 283.045 571.543 283.045Z" fill="#E6E6E6"/>
<path d="M580.389 283.045H577.065C576.762 283.045 576.516 283.31 576.516 283.637V285.311C576.516 285.638 576.762 285.903 577.065 285.903H580.389C580.692 285.903 580.938 285.638 580.938 285.311V283.637C580.938 283.31 580.692 283.045 580.389 283.045Z" fill="#E6E6E6"/>
<path d="M589.234 283.045H585.911C585.607 283.045 585.361 283.31 585.361 283.637V285.311C585.361 285.638 585.607 285.903 585.911 285.903H589.234C589.538 285.903 589.784 285.638 589.784 285.311V283.637C589.784 283.31 589.538 283.045 589.234 283.045Z" fill="#E6E6E6"/>
<path d="M456.444 287.808H453.121C452.817 287.808 452.571 288.073 452.571 288.4V290.074C452.571 290.401 452.817 290.666 453.121 290.666H456.444C456.748 290.666 456.994 290.401 456.994 290.074V288.4C456.994 288.073 456.748 287.808 456.444 287.808Z" fill="#E6E6E6"/>
<path d="M465.29 287.808H461.966C461.663 287.808 461.417 288.073 461.417 288.4V290.074C461.417 290.401 461.663 290.666 461.966 290.666H465.29C465.593 290.666 465.839 290.401 465.839 290.074V288.4C465.839 288.073 465.593 287.808 465.29 287.808Z" fill="#E6E6E6"/>
<path d="M474.135 287.808H470.812C470.508 287.808 470.262 288.073 470.262 288.4V290.074C470.262 290.401 470.508 290.666 470.812 290.666H474.135C474.439 290.666 474.685 290.401 474.685 290.074V288.4C474.685 288.073 474.439 287.808 474.135 287.808Z" fill="#E6E6E6"/>
<path d="M482.981 287.808H479.658C479.354 287.808 479.108 288.073 479.108 288.4V290.074C479.108 290.401 479.354 290.666 479.658 290.666H482.981C483.285 290.666 483.531 290.401 483.531 290.074V288.4C483.531 288.073 483.285 287.808 482.981 287.808Z" fill="#E6E6E6"/>
<path d="M491.827 287.808H488.503C488.2 287.808 487.954 288.073 487.954 288.4V290.074C487.954 290.401 488.2 290.666 488.503 290.666H491.827C492.13 290.666 492.377 290.401 492.377 290.074V288.4C492.377 288.073 492.13 287.808 491.827 287.808Z" fill="#E6E6E6"/>
<path d="M500.673 287.808H497.349C497.046 287.808 496.799 288.073 496.799 288.4V290.074C496.799 290.401 497.046 290.666 497.349 290.666H500.673C500.976 290.666 501.222 290.401 501.222 290.074V288.4C501.222 288.073 500.976 287.808 500.673 287.808Z" fill="#E6E6E6"/>
<path d="M509.518 287.808H506.195C505.891 287.808 505.645 288.073 505.645 288.4V290.074C505.645 290.401 505.891 290.666 506.195 290.666H509.518C509.822 290.666 510.068 290.401 510.068 290.074V288.4C510.068 288.073 509.822 287.808 509.518 287.808Z" fill="#E6E6E6"/>
<path d="M518.364 287.808H515.04C514.737 287.808 514.491 288.073 514.491 288.4V290.074C514.491 290.401 514.737 290.666 515.04 290.666H518.364C518.668 290.666 518.914 290.401 518.914 290.074V288.4C518.914 288.073 518.668 287.808 518.364 287.808Z" fill="#E6E6E6"/>
<path d="M527.21 287.808H523.886C523.583 287.808 523.337 288.073 523.337 288.4V290.074C523.337 290.401 523.583 290.666 523.886 290.666H527.21C527.513 290.666 527.759 290.401 527.759 290.074V288.4C527.759 288.073 527.513 287.808 527.21 287.808Z" fill="#E6E6E6"/>
<path d="M536.055 287.808H532.732C532.428 287.808 532.182 288.073 532.182 288.4V290.074C532.182 290.401 532.428 290.666 532.732 290.666H536.055C536.359 290.666 536.605 290.401 536.605 290.074V288.4C536.605 288.073 536.359 287.808 536.055 287.808Z" fill="#E6E6E6"/>
<path d="M544.901 287.808H541.578C541.274 287.808 541.028 288.073 541.028 288.4V290.074C541.028 290.401 541.274 290.666 541.578 290.666H544.901C545.205 290.666 545.451 290.401 545.451 290.074V288.4C545.451 288.073 545.205 287.808 544.901 287.808Z" fill="#E6E6E6"/>
<path d="M553.747 287.808H550.423C550.12 287.808 549.874 288.073 549.874 288.4V290.074C549.874 290.401 550.12 290.666 550.423 290.666H553.747C554.051 290.666 554.297 290.401 554.297 290.074V288.4C554.297 288.073 554.051 287.808 553.747 287.808Z" fill="#E6E6E6"/>
<path d="M562.593 287.808H559.269C558.966 287.808 558.719 288.073 558.719 288.4V290.074C558.719 290.401 558.966 290.666 559.269 290.666H562.593C562.896 290.666 563.142 290.401 563.142 290.074V288.4C563.142 288.073 562.896 287.808 562.593 287.808Z" fill="#E6E6E6"/>
<path d="M571.438 287.808H568.115C567.811 287.808 567.565 288.073 567.565 288.4V290.074C567.565 290.401 567.811 290.666 568.115 290.666H571.438C571.742 290.666 571.988 290.401 571.988 290.074V288.4C571.988 288.073 571.742 287.808 571.438 287.808Z" fill="#E6E6E6"/>
<path d="M580.284 287.808H576.961C576.657 287.808 576.411 288.073 576.411 288.4V290.074C576.411 290.401 576.657 290.666 576.961 290.666H580.284C580.588 290.666 580.834 290.401 580.834 290.074V288.4C580.834 288.073 580.588 287.808 580.284 287.808Z" fill="#E6E6E6"/>
<path d="M589.13 287.808H585.806C585.503 287.808 585.257 288.073 585.257 288.4V290.074C585.257 290.401 585.503 290.666 585.806 290.666H589.13C589.433 290.666 589.679 290.401 589.679 290.074V288.4C589.679 288.073 589.433 287.808 589.13 287.808Z" fill="#E6E6E6"/>
<path d="M529.864 293.523H495.58C495.276 293.523 495.03 293.788 495.03 294.115V295.789C495.03 296.116 495.276 296.381 495.58 296.381H529.864C530.167 296.381 530.413 296.116 530.413 295.789V294.115C530.413 293.788 530.167 293.523 529.864 293.523Z" fill="#E6E6E6"/>
<path d="M604.057 83.0619V174.626C604.056 180.758 601.794 186.638 597.768 190.974C593.741 195.31 588.281 197.746 582.587 197.747H476.169C471.98 197.748 467.881 196.43 464.379 193.955C460.876 191.479 458.122 187.955 456.455 183.816C455.897 182.448 455.47 181.022 455.183 179.56C457.445 180.503 459.85 180.984 462.276 180.979H568.693C573.941 180.971 578.971 178.723 582.681 174.727C586.391 170.732 588.479 165.315 588.486 159.664V68.1003C588.491 65.4882 588.044 62.898 587.169 60.4619C588.526 60.7716 589.851 61.2307 591.121 61.832C594.964 63.6268 598.237 66.5928 600.535 70.3648C602.834 74.1368 604.058 78.5503 604.057 83.0619Z" fill="#F2F2F2"/>
<path d="M207.045 447.359L196.49 454.398L165.394 413.235L180.972 402.849L207.045 447.359Z" fill="#FFB6B6"/>
<path d="M216.157 462.062L207.667 466.143L202.573 458.239L202.27 468.738L179.751 479.564C178.671 480.083 177.466 480.216 176.311 479.945C175.156 479.675 174.112 479.013 173.33 478.058C172.549 477.103 172.072 475.903 171.968 474.635C171.865 473.367 172.14 472.097 172.755 471.009L185.193 448.989L181.576 440.262L200.995 432.385L216.157 462.062Z" fill="#2F2E41"/>
<path d="M177.477 439.441L195.304 420.837C182.059 385.641 181.001 363.825 162.64 321.258C206.203 330.853 237.348 330.27 273.376 321.667C285.573 318.8 317.044 292.622 314.457 279.199C314.336 278.571 314.193 277.95 314.028 277.334C310.161 263.135 312.884 241.39 304.513 225.633C289.027 219.346 265.499 240.577 247.094 253.519C238.219 259.76 244.716 268.264 238.087 270.494L212.677 279.376L150.335 268.533C147.322 268.042 144.248 268.197 141.291 268.99C138.334 269.783 135.552 271.199 133.106 273.156C130.659 275.112 128.597 277.571 127.036 280.39C125.476 283.209 124.45 286.332 124.016 289.58C123.91 290.309 123.834 291.042 123.787 291.779C126.655 308.879 129.645 325.53 132.865 341.336C133.904 346.438 132.149 356.219 136.057 356.365C139.965 356.51 138.391 366.627 139.608 371.573C147.1 402.021 151.838 416.757 177.477 439.441Z" fill="#2F2E41"/>
<path d="M143.356 521.042L132.36 514.861L149.758 465.229L165.988 474.351L143.356 521.042Z" fill="#FFB6B6"/>
<path d="M141.524 483.988L159.156 497.062C180.767 463.405 194.798 418.43 205.248 368.106C245.936 348.993 281.538 327.125 306.348 297.793C310.422 292.875 312.558 286.443 312.304 279.858C312.05 273.273 309.425 267.053 304.986 262.517C304.552 262.079 304.103 261.659 303.64 261.257C292.893 252.039 269.027 257.343 253.773 249.639L226.522 290.255L229.654 299.715L220.175 304.685L212.171 308.881L203.008 313.685L172.972 329.431C170.249 330.897 167.822 332.929 165.832 335.409C163.842 337.89 162.327 340.771 161.376 343.885C160.424 346.999 160.055 350.285 160.289 353.554C160.523 356.823 161.356 360.009 162.739 362.93C163.042 363.591 163.372 364.238 163.727 364.87L152.572 424.716C152.572 424.716 155.641 435.135 150.811 434.16C145.982 433.185 148.613 445.951 148.613 445.951L141.524 483.988Z" fill="#2F2E41"/>
<path d="M136.697 548.395L128.454 543.763L131.044 534.555L123.214 540.818L101.352 528.53C100.304 527.941 99.4581 527.007 98.9381 525.864C98.4181 524.72 98.251 523.428 98.4613 522.175C98.6716 520.923 99.2482 519.775 100.107 518.9C100.966 518.026 102.062 517.469 103.235 517.313L126.987 514.141L131.093 505.668L148.884 517.169L136.697 548.395Z" fill="#2F2E41"/>
<path d="M377.046 288.202L364.185 254.732L354.052 260.794L360.171 294.842C359.558 296.999 359.516 299.298 360.05 301.479C360.584 303.66 361.672 305.638 363.192 307.19C364.712 308.742 366.604 309.807 368.655 310.264C370.706 310.721 372.835 310.554 374.803 309.779C376.77 309.005 378.498 307.655 379.792 305.882C381.087 304.108 381.896 301.981 382.129 299.739C382.362 297.497 382.009 295.23 381.111 293.192C380.213 291.154 378.805 289.426 377.046 288.202Z" fill="#FFB6B6"/>
<path d="M161.234 23.5298L180.803 52.9917L189.397 44.6147L176.273 12.9453C176.416 10.6948 175.973 8.44597 174.994 6.45156C174.016 4.45715 172.54 2.79627 170.733 1.65563C168.925 0.515003 166.859 -0.0601588 164.764 -0.00518693C162.67 0.049785 160.632 0.732711 158.879 1.96681C157.125 3.20091 155.726 4.93726 154.839 6.98066C153.952 9.02405 153.611 11.2935 153.856 13.5338C154.101 15.7741 154.921 17.8965 156.224 19.6624C157.528 21.4283 159.263 22.7676 161.234 23.5298Z" fill="#FFB6B6"/>
<path d="M249.603 210.263C236.91 231.464 283.41 277.658 307.891 266.856C312.178 264.965 326.923 258.718 316.844 250.056C306.765 241.395 318.013 251.088 318.279 245.45C318.456 241.68 315.746 233.411 318.574 233.766C321.401 234.12 323.024 225.313 316.866 223.07C314.725 222.247 312.846 220.783 311.45 218.85C310.054 216.917 309.199 214.596 308.985 212.158C308.396 188.92 315.704 164.658 315.704 164.658L345.537 246.783C345.537 246.783 345.317 260.991 349.121 256.649C352.926 252.307 352.649 266.359 352.649 266.359C352.649 266.359 358.306 270.611 355.053 272.977C351.8 275.343 358.555 282.618 358.555 282.618L374.317 281.406C374.317 281.406 374.071 268.796 371.379 266.008C368.688 263.219 370.01 258.831 370.01 258.831C370.01 258.831 364.461 253.273 367.701 246.728C370.94 240.182 344.112 123.105 344.112 123.105C343.038 117.472 340.537 112.269 336.888 108.071C333.239 103.873 328.583 100.843 323.435 99.3164L306.41 94.2686L303.387 81.3521H279.416L275.241 89.8393L236.961 86.2019C236.961 86.2019 199.084 49.0891 200.933 46.1912C202.782 43.2934 196.911 36.509 196.911 36.509C196.911 36.509 191.896 34.7415 194.726 33.7979C197.555 32.8543 192.207 30.6726 192.207 30.6726C192.207 30.6726 187.254 29.2709 189.59 27.4253C191.926 25.5796 181.793 24.3672 181.793 24.3672L168.646 35.9188L171.303 40.7709C171.303 40.7709 169.683 47.378 171.797 44.966C173.912 42.554 174.31 49.5538 174.31 49.5538C174.31 49.5538 175.39 57.2188 181.793 59.5282C188.196 61.8375 193.052 83.7771 193.052 83.7771L247.094 132.275C238.863 142.449 240.822 153.088 248.113 163.97L249.603 210.263Z" fill="#FFB400"/>
<path d="M290.861 72.7703C305.197 72.7703 316.819 60.255 316.819 44.8166C316.819 29.3781 305.197 16.8628 290.861 16.8628C276.525 16.8628 264.903 29.3781 264.903 44.8166C264.903 60.255 276.525 72.7703 290.861 72.7703Z" fill="#FFB6B6"/>
<path d="M313.52 36.4918C312.856 36.6979 303.106 38.068 298.884 38.9167C294.741 39.7533 294.02 34.0669 290.631 35.1339C290.633 35.109 290.629 35.084 290.62 35.0611C290.095 32.0482 289.197 29.1245 287.952 26.3679C288.404 29.0081 288.468 31.7083 288.143 34.37C288.141 34.4393 288.134 34.5083 288.121 34.5761C288.109 34.6974 288.087 34.8065 288.076 34.9277C284.495 33.2303 282.221 34.7459 279.744 35.2793C276.975 35.8734 274.813 37.1829 276.367 47.4038C279.553 68.4276 296.126 75.9326 293.255 89.8394C292.692 92.5916 291.273 96.035 289.494 96.8958C288.969 93.8829 288.071 90.9592 286.826 88.2026C287.278 90.8428 287.342 93.543 287.017 96.2047C284.259 92.9917 282.266 81.7645 272.989 72.8652C270.703 70.6827 259.253 57.7338 257.88 54.6785C258.301 57.1213 258.505 59.602 258.488 62.0865C258.49 63.7494 258.385 65.4105 258.173 67.0575C258.172 67.1636 258.161 67.2694 258.139 67.3728C258.128 67.5668 258.094 67.7365 258.071 67.9184C258.049 68.1245 258.015 68.3185 257.981 68.5246C254.232 67.9426 250.911 67.2394 249.346 65.5905C241.735 57.6126 251.023 42.069 256.101 28.0047C263.363 7.86596 284.45 5.18645 286.499 4.96821C295.529 3.98613 310.785 6.07154 315.772 17.0927C319.262 24.8159 317.033 35.4006 313.52 36.4918Z" fill="#2F2E41"/>
<path d="M258.786 41.0376L277.589 9.53798C273.083 6.72076 267.952 5.27119 262.741 5.34339C260.145 5.4015 257.588 6.04822 255.239 7.24137C252.89 8.43452 250.801 10.1473 249.108 12.2682C245.268 17.408 244.609 24.6737 246.047 31.0862C246.544 33.3008 256.007 25.5085 253.755 29.1458C251.907 31.9936 248.884 43.9637 248.126 47.3325C246.906 52.7543 243.551 58.3198 246.539 62.8767C250.073 68.2653 256.379 70.9438 262.5 71.2159C268.621 71.4879 274.646 69.6612 280.463 67.5922L258.786 41.0376Z" fill="#2F2E41"/>
<path d="M266.011 39.7952C265.739 39.7949 265.477 39.6889 265.272 39.4968C265.068 39.3047 264.934 39.0393 264.897 38.7497C264.86 38.4601 264.921 38.1657 265.069 37.9207C265.217 37.6757 265.443 37.4967 265.704 37.4165C265.999 36.892 265.878 34.6844 265.781 32.9006C265.414 26.2032 264.802 14.994 274.907 7.42743C275.152 7.24389 275.455 7.17271 275.749 7.22955C276.042 7.2864 276.303 7.46661 276.474 7.73055C276.644 7.99448 276.71 8.32052 276.657 8.63694C276.605 8.95336 276.437 9.23424 276.192 9.41779C267.124 16.2088 267.668 26.1682 268.029 32.758C268.234 36.5255 268.383 39.247 266.261 39.765C266.179 39.7852 266.095 39.7953 266.011 39.7952Z" fill="#FFB400"/>
<path d="M5.90449e-06 547.965C-0.00104674 548.347 0.138687 548.713 0.388451 548.984C0.638214 549.254 0.977551 549.407 1.33183 549.408H806.666C807.021 549.408 807.362 549.256 807.613 548.986C807.864 548.715 808.006 548.348 808.006 547.965C808.006 547.583 807.864 547.216 807.613 546.945C807.362 546.675 807.021 546.522 806.666 546.522H1.33983C1.16441 546.522 0.990603 546.559 0.828331 546.63C0.666059 546.702 0.518497 546.808 0.394086 546.941C0.269674 547.074 0.170847 547.232 0.103237 547.407C0.0356273 547.581 0.000555505 547.768 4.02634e-05 547.957L5.90449e-06 547.965Z" fill="#CCCCCC"/>
<path d="M498.238 115H481.201C480.749 115 480.316 114.806 479.997 114.462C479.677 114.118 479.498 113.652 479.498 113.165C479.498 112.678 479.677 112.212 479.997 111.868C480.316 111.524 480.749 111.33 481.201 111.33H498.238C498.69 111.33 499.123 111.524 499.443 111.868C499.762 112.212 499.942 112.678 499.942 113.165C499.942 113.652 499.762 114.118 499.443 114.462C499.123 114.806 498.69 115 498.238 115Z" fill="#FFB400"/>
<path d="M528.904 115H511.868C511.644 115 511.422 114.952 511.216 114.86C511.009 114.768 510.821 114.633 510.663 114.462C510.505 114.292 510.379 114.09 510.294 113.867C510.208 113.645 510.164 113.406 510.164 113.165C510.164 112.924 510.208 112.685 510.294 112.463C510.379 112.24 510.505 112.038 510.663 111.868C510.821 111.697 511.009 111.562 511.216 111.47C511.422 111.378 511.644 111.33 511.868 111.33H528.904C529.128 111.33 529.35 111.378 529.556 111.47C529.763 111.562 529.951 111.697 530.109 111.868C530.267 112.038 530.393 112.24 530.478 112.463C530.564 112.685 530.608 112.924 530.608 113.165C530.608 113.406 530.564 113.645 530.478 113.867C530.393 114.09 530.267 114.292 530.109 114.462C529.951 114.633 529.763 114.768 529.556 114.86C529.35 114.952 529.128 115 528.904 115Z" fill="#FFB400"/>
<path d="M544.237 129.677H527.201C526.977 129.677 526.755 129.63 526.549 129.538C526.342 129.445 526.154 129.31 525.996 129.14C525.838 128.969 525.712 128.767 525.627 128.545C525.541 128.322 525.497 128.083 525.497 127.843C525.497 127.602 525.541 127.363 525.627 127.14C525.712 126.918 525.838 126.716 525.996 126.545C526.154 126.375 526.342 126.24 526.549 126.147C526.755 126.055 526.977 126.008 527.201 126.008H544.237C544.461 126.008 544.683 126.055 544.889 126.147C545.096 126.24 545.284 126.375 545.442 126.545C545.6 126.716 545.726 126.918 545.811 127.14C545.897 127.363 545.941 127.602 545.941 127.843C545.941 128.083 545.897 128.322 545.811 128.545C545.726 128.767 545.6 128.969 545.442 129.14C545.284 129.31 545.096 129.445 544.889 129.538C544.683 129.63 544.461 129.677 544.237 129.677Z" fill="#FFB400"/>
<path d="M513.665 129.677H481.201C480.749 129.677 480.316 129.484 479.997 129.14C479.677 128.796 479.498 128.329 479.498 127.843C479.498 127.356 479.677 126.889 479.997 126.545C480.316 126.201 480.749 126.008 481.201 126.008H513.665C514.117 126.008 514.55 126.201 514.87 126.545C515.189 126.889 515.369 127.356 515.369 127.843C515.369 128.329 515.189 128.796 514.87 129.14C514.55 129.484 514.117 129.677 513.665 129.677Z" fill="#FFB400"/>
<path d="M574.998 115H542.534C542.082 115 541.649 114.806 541.329 114.462C541.01 114.118 540.83 113.652 540.83 113.165C540.83 112.678 541.01 112.212 541.329 111.868C541.649 111.524 542.082 111.33 542.534 111.33H574.998C575.221 111.33 575.443 111.378 575.65 111.47C575.856 111.562 576.044 111.697 576.202 111.868C576.361 112.038 576.486 112.24 576.572 112.463C576.657 112.685 576.701 112.924 576.701 113.165C576.701 113.406 576.657 113.645 576.572 113.867C576.486 114.09 576.361 114.292 576.202 114.462C576.044 114.633 575.856 114.768 575.65 114.86C575.443 114.952 575.221 115 574.998 115Z" fill="#FFB400"/>
<path d="M509.902 87.2058H477.438C477.214 87.2064 476.992 87.1594 476.785 87.0675C476.577 86.9755 476.389 86.8405 476.23 86.6701C476.072 86.4996 475.946 86.2972 475.86 86.0743C475.774 85.8514 475.73 85.6124 475.73 85.3711C475.73 85.1297 475.774 84.8908 475.86 84.6679C475.946 84.445 476.072 84.2425 476.23 84.0721C476.389 83.9017 476.577 83.7666 476.785 83.6747C476.992 83.5828 477.214 83.5358 477.438 83.5364H509.902C510.354 83.5364 510.787 83.7297 511.106 84.0737C511.426 84.4178 511.606 84.8845 511.606 85.3711C511.606 85.8577 511.426 86.3243 511.106 86.6684C510.787 87.0125 510.354 87.2058 509.902 87.2058Z" fill="#FFB400"/>
<path d="M512.571 97.9246C512.253 97.9248 511.943 97.8179 511.684 97.619C511.425 97.42 511.231 97.1389 511.127 96.815C511.024 96.4911 511.017 96.1405 511.108 95.8123C511.199 95.4841 511.383 95.1946 511.634 94.9844L519.947 88.0261C520.281 87.7465 520.557 87.3952 520.758 86.9946C520.96 86.5939 521.082 86.1525 521.116 85.6985C521.151 85.2444 521.098 84.7875 520.96 84.3568C520.822 83.926 520.603 83.5308 520.316 83.1961L513.337 75.0599C513.201 74.9014 513.095 74.7157 513.026 74.5132C512.957 74.3108 512.925 74.0957 512.933 73.8801C512.941 73.6645 512.988 73.4527 513.072 73.2567C513.156 73.0608 513.275 72.8846 513.422 72.7382C513.569 72.5917 513.742 72.4779 513.93 72.4033C514.117 72.3286 514.317 72.2945 514.517 72.303C514.718 72.3115 514.914 72.3624 515.096 72.4528C515.278 72.5431 515.442 72.6712 515.578 72.8296L525.942 84.9114C526.085 85.0785 526.195 85.2759 526.264 85.491C526.332 85.7062 526.359 85.9343 526.342 86.1611C526.325 86.3879 526.264 86.6084 526.163 86.8085C526.063 87.0086 525.925 87.1841 525.758 87.3238L513.507 97.5789C513.239 97.8031 512.91 97.9248 512.571 97.9246Z" fill="#FFB400"/>
<path d="M475.795 97.9246C476.113 97.9248 476.423 97.8179 476.682 97.619C476.941 97.42 477.136 97.1389 477.239 96.815C477.342 96.4911 477.349 96.1405 477.258 95.8123C477.167 95.4841 476.983 95.1946 476.732 94.9844L468.42 88.0261C468.086 87.7465 467.809 87.3952 467.608 86.9946C467.406 86.5939 467.285 86.1525 467.25 85.6985C467.215 85.2444 467.268 84.7875 467.406 84.3568C467.544 83.926 467.763 83.5308 468.05 83.1961L475.029 75.0599C475.165 74.9014 475.271 74.7157 475.34 74.5132C475.41 74.3108 475.441 74.0957 475.433 73.8801C475.425 73.6645 475.378 73.4527 475.294 73.2567C475.21 73.0608 475.092 72.8846 474.944 72.7382C474.797 72.5917 474.625 72.4779 474.437 72.4033C474.249 72.3286 474.049 72.2945 473.849 72.303C473.649 72.3115 473.452 72.3624 473.27 72.4528C473.088 72.5431 472.924 72.6712 472.789 72.8296L462.425 84.9114C462.281 85.0785 462.172 85.2759 462.103 85.491C462.034 85.7062 462.007 85.9343 462.024 86.1611C462.042 86.3879 462.103 86.6084 462.203 86.8085C462.304 87.0086 462.442 87.1841 462.609 87.3238L474.859 97.5789C475.127 97.8031 475.456 97.9248 475.795 97.9246Z" fill="#FFB400"/>
<path d="M526.684 161.141H494.22C493.769 161.141 493.335 160.947 493.016 160.603C492.696 160.259 492.517 159.792 492.517 159.306C492.517 158.819 492.696 158.353 493.016 158.009C493.335 157.664 493.769 157.471 494.22 157.471H526.684C527.136 157.471 527.57 157.664 527.889 158.009C528.209 158.353 528.388 158.819 528.388 159.306C528.388 159.792 528.209 160.259 527.889 160.603C527.57 160.947 527.136 161.141 526.684 161.141Z" fill="#FFB400"/>
<path d="M532.405 170.217C532.087 170.217 531.777 170.11 531.518 169.911C531.259 169.712 531.064 169.431 530.961 169.107C530.858 168.783 530.851 168.432 530.942 168.104C531.033 167.776 531.217 167.487 531.468 167.276L539.78 160.318C540.114 160.038 540.391 159.687 540.592 159.287C540.794 158.886 540.916 158.444 540.95 157.99C540.985 157.536 540.932 157.079 540.794 156.649C540.656 156.218 540.437 155.823 540.15 155.488L533.171 147.352C533.035 147.193 532.929 147.008 532.86 146.805C532.79 146.603 532.759 146.388 532.767 146.172C532.775 145.956 532.822 145.745 532.906 145.549C532.99 145.353 533.109 145.177 533.256 145.03C533.403 144.884 533.575 144.77 533.763 144.695C533.951 144.621 534.151 144.587 534.351 144.595C534.551 144.604 534.748 144.654 534.93 144.745C535.112 144.835 535.276 144.963 535.412 145.122L545.776 157.203C545.919 157.371 546.029 157.568 546.097 157.783C546.166 157.998 546.193 158.226 546.176 158.453C546.158 158.68 546.097 158.9 545.997 159.1C545.896 159.301 545.758 159.476 545.592 159.616L533.341 169.871C533.073 170.095 532.744 170.217 532.405 170.217Z" fill="#FFB400"/>
<path d="M475.795 170.217C476.113 170.217 476.423 170.11 476.682 169.911C476.941 169.712 477.136 169.431 477.239 169.107C477.342 168.783 477.349 168.432 477.258 168.104C477.167 167.776 476.983 167.487 476.732 167.276L468.42 160.318C468.086 160.038 467.809 159.687 467.608 159.287C467.406 158.886 467.285 158.444 467.25 157.99C467.215 157.536 467.268 157.079 467.406 156.649C467.544 156.218 467.763 155.823 468.05 155.488L475.029 147.352C475.304 147.032 475.449 146.607 475.433 146.172C475.417 145.737 475.242 145.326 474.944 145.03C474.647 144.734 474.253 144.578 473.849 144.595C473.445 144.612 473.063 144.802 472.789 145.122L462.425 157.203C462.281 157.371 462.172 157.568 462.103 157.783C462.034 157.998 462.007 158.226 462.024 158.453C462.042 158.68 462.103 158.9 462.203 159.1C462.304 159.301 462.442 159.476 462.609 159.616L474.859 169.871C475.127 170.095 475.456 170.217 475.795 170.217Z" fill="#FFB400"/>
<path d="M478.692 165.076L485.516 148.265C485.699 147.822 486.037 147.474 486.457 147.298C486.877 147.122 487.344 147.132 487.757 147.327C488.17 147.521 488.494 147.884 488.659 148.335C488.825 148.786 488.817 149.29 488.638 149.735L481.814 166.546C481.726 166.768 481.597 166.969 481.436 167.137C481.274 167.305 481.084 167.437 480.875 167.526C480.666 167.614 480.443 167.658 480.219 167.653C479.995 167.649 479.773 167.597 479.568 167.5C479.362 167.403 479.176 167.264 479.021 167.089C478.865 166.915 478.744 166.709 478.662 166.484C478.581 166.259 478.542 166.018 478.547 165.777C478.552 165.535 478.602 165.297 478.692 165.076Z" fill="#FFB400"/>
</g>
<defs>
<clipPath id="clip0_106_3890">
<rect width="808.006" height="550.407" fill="white"/>
</clipPath>
</defs>
</svg>
