<svg width="41" height="41" viewBox="0 0 41 41" fill="none" xmlns="http://www.w3.org/2000/svg">
<ellipse cx="20.1458" cy="20.1058" rx="20.1458" ry="20.1058" fill="#FFB400"/>
<g clip-path="url(#clip0_128_3024)">
<path d="M12.5933 14.8283L17.8815 12.5664L22.4143 14.8283L27.176 12.7918C27.2335 12.7673 27.2962 12.7573 27.3585 12.7628C27.4208 12.7684 27.4807 12.7893 27.5329 12.8237C27.5851 12.8581 27.6279 12.9049 27.6576 12.9598C27.6872 13.0148 27.7026 13.0763 27.7026 13.1387V25.3839L22.4143 27.6458L17.8815 25.3839L13.1198 27.4203C13.0623 27.4449 12.9996 27.4549 12.9374 27.4493C12.8751 27.4438 12.8151 27.4229 12.7629 27.3885C12.7107 27.3541 12.6679 27.3073 12.6383 27.2524C12.6087 27.1974 12.5932 27.1359 12.5933 27.0735V14.8283ZM22.4143 25.9599V16.4689L22.3652 16.4901L17.8815 14.2523V23.7432L17.9306 23.7221L22.4143 25.9599Z" fill="#2B2B2B"/>
</g>
<defs>
<clipPath id="clip0_128_3024">
<rect width="18.1312" height="18.0952" fill="white" transform="translate(11.0823 11.0586)"/>
</clipPath>
</defs>
</svg>
