<svg width="41" height="41" viewBox="0 0 41 41" fill="none" xmlns="http://www.w3.org/2000/svg">
<ellipse cx="20.1458" cy="20.1058" rx="20.1458" ry="20.1058" fill="#FFB400"/>
<g clip-path="url(#clip0_128_3025)">
<path d="M13.3487 13.3198H26.9471C27.1475 13.3198 27.3396 13.3993 27.4813 13.5407C27.623 13.6821 27.7026 13.8738 27.7026 14.0738V26.1373C27.7026 26.3372 27.623 26.529 27.4813 26.6704C27.3396 26.8118 27.1475 26.8913 26.9471 26.8913H13.3487C13.1484 26.8913 12.9562 26.8118 12.8145 26.6704C12.6729 26.529 12.5933 26.3372 12.5933 26.1373V14.0738C12.5933 13.8738 12.6729 13.6821 12.8145 13.5407C12.9562 13.3993 13.1484 13.3198 13.3487 13.3198ZM20.1933 19.8665L15.3492 15.7612L14.3709 16.9102L20.2031 21.8525L25.9303 16.9065L24.9421 15.7657L20.194 19.8665H20.1933Z" fill="#2B2B2B"/>
</g>
<defs>
<clipPath id="clip0_128_3025">
<rect width="18.1312" height="18.0952" fill="white" transform="translate(11.0823 11.0581)"/>
</clipPath>
</defs>
</svg>
