<svg width="41" height="41" viewBox="0 0 41 41" fill="none" xmlns="http://www.w3.org/2000/svg">
<ellipse cx="20.1458" cy="20.1058" rx="20.1458" ry="20.1058" fill="#FFB400"/>
<g clip-path="url(#clip0_128_3026)">
<path d="M15.6151 12.5664H24.6807C24.881 12.5664 25.0732 12.6458 25.2149 12.7872C25.3566 12.9286 25.4361 13.1204 25.4361 13.3204V26.8918C25.4361 27.0918 25.3566 27.2835 25.2149 27.4249C25.0732 27.5663 24.881 27.6458 24.6807 27.6458H15.6151C15.4147 27.6458 15.2226 27.5663 15.0809 27.4249C14.9392 27.2835 14.8596 27.0918 14.8596 26.8918V13.3204C14.8596 13.1204 14.9392 12.9286 15.0809 12.7872C15.2226 12.6458 15.4147 12.5664 15.6151 12.5664ZM20.1479 23.8759C19.9475 23.8759 19.7554 23.9554 19.6137 24.0968C19.472 24.2382 19.3924 24.4299 19.3924 24.6299C19.3924 24.8299 19.472 25.0216 19.6137 25.163C19.7554 25.3044 19.9475 25.3839 20.1479 25.3839C20.3482 25.3839 20.5404 25.3044 20.6821 25.163C20.8238 25.0216 20.9033 24.8299 20.9033 24.6299C20.9033 24.4299 20.8238 24.2382 20.6821 24.0968C20.5404 23.9554 20.3482 23.8759 20.1479 23.8759Z" fill="#2B2B2B"/>
</g>
<defs>
<clipPath id="clip0_128_3026">
<rect width="18.1312" height="18.0952" fill="white" transform="translate(11.0823 11.0586)"/>
</clipPath>
</defs>
</svg>
